<?xml version="1.0" encoding="iso-8859-1"?>
<!-- Uploaded to: SVG Repo, www.svgrepo.com, Generator: SVG Repo Mixer Tools -->
<svg fill="#000000" height="800px" width="800px" version="1.1" id="Capa_1" xmlns="http://www.w3.org/2000/svg" xmlns:xlink="http://www.w3.org/1999/xlink" 
	 viewBox="0 0 431.466 431.466" xml:space="preserve">
<path id="XMLID_561_" d="M148.668,259.244H16.865C7.566,259.244,0,266.809,0,276.109v131.804c0,9.299,7.566,16.864,16.865,16.864
	h131.803c9.299,0,16.865-7.565,16.865-16.864V276.109C165.533,266.809,157.967,259.244,148.668,259.244z M151.533,407.913
	c0,1.553-1.312,2.864-2.865,2.864H16.865c-1.553,0-2.865-1.312-2.865-2.864V276.109c0-1.553,1.312-2.865,2.865-2.865h131.803
	c1.553,0,2.865,1.312,2.865,2.865V407.913z M431.466,190.478c0,68.102-50.913,126.292-118.429,135.358
	c-0.316,0.042-0.63,0.063-0.94,0.063c-3.452,0-6.457-2.554-6.929-6.069c-0.515-3.832,2.175-7.355,6.006-7.87
	c60.597-8.136,106.292-60.362,106.292-121.482c0-61.121-45.695-113.347-106.292-121.482c-3.831-0.515-6.521-4.038-6.006-7.87
	c0.514-3.832,4.033-6.52,7.869-6.006C380.553,64.185,431.466,122.377,431.466,190.478z M197.871,193.728h26.94c3.866,0,7-3.134,7-7
	v-26.94c0-3.866-3.134-7-7-7h-26.94c-3.866,0-7,3.134-7,7v26.94C190.871,190.594,194.005,193.728,197.871,193.728z M204.871,166.788
	h12.94v12.94h-12.94V166.788z M190.871,293.184c0,3.866,3.134,7,7,7h26.94c3.866,0,7-3.134,7-7v-26.94c0-3.866-3.134-7-7-7h-26.94
	c-3.866,0-7,3.134-7,7V293.184z M204.871,273.244h12.94v12.94h-12.94V273.244z M117.488,347.907l-14.144-11.242v-14.214
	c0-3.866-3.134-7-7-7h-6.578v-16.253c0-3.866-3.134-7-7-7c-3.866,0-7,3.134-7,7v16.253h-6.577c-3.866,0-7,3.134-7,7v14.214
	l-14.146,11.242c-1.671,1.328-2.645,3.346-2.645,5.48v31.436c0,3.866,3.134,7,7,7h60.733c3.866,0,7-3.134,7-7v-31.436
	C120.133,351.253,119.159,349.235,117.488,347.907z M106.133,377.823H59.399v-21.058l14.146-11.242
	c1.671-1.328,2.645-3.346,2.645-5.48v-10.592h13.155v10.592c0,2.134,0.974,4.152,2.645,5.48l14.144,11.242V377.823z M291.812,13.689
	v353.577c0,3.866-3.134,7-7,7h-96.111c-3.866,0-7-3.134-7-7s3.134-7,7-7h89.111V20.689H39.257v215.387c0,3.866-3.134,7-7,7
	s-7-3.134-7-7V13.689c0-3.866,3.134-7,7-7h252.555C288.678,6.689,291.812,9.823,291.812,13.689z M158.533,193.793h-26.94
	c-3.866,0-7,3.134-7,7v26.94c0,3.866,3.134,7,7,7h26.94c3.866,0,7-3.134,7-7v-26.94
	C165.533,196.927,162.399,193.793,158.533,193.793z M151.533,220.733h-12.94v-12.94h12.94V220.733z M333.782,190.478
	c0-15.861-9.547-30.007-24.321-36.037c-3.579-1.461-5.296-5.547-3.836-9.126c1.461-3.579,5.545-5.297,9.127-3.836
	c20.065,8.189,33.03,27.422,33.03,48.999c0,21.577-12.966,40.81-33.031,48.998c-0.865,0.354-1.762,0.521-2.642,0.521
	c-2.761,0-5.377-1.644-6.484-4.357c-1.46-3.58,0.257-7.666,3.837-9.126C324.235,220.485,333.782,206.34,333.782,190.478z"/>
</svg>