<?xml version="1.0" encoding="iso-8859-1"?>
<!-- Uploaded to: SVG Repo, www.svgrepo.com, Generator: SVG Repo Mixer Tools -->
<svg fill="#000000" height="800px" width="800px" version="1.1" id="Layer_1" xmlns="http://www.w3.org/2000/svg" xmlns:xlink="http://www.w3.org/1999/xlink" 
	 viewBox="0 0 512 512" xml:space="preserve">
<g>
	<g>
		<path d="M396.8,153.6c4.318,0,8.576,0.265,12.8,0.648V128c0-8.559-4.275-16.555-11.401-21.299l-76.8-51.2
			c-4.207-2.807-9.148-4.301-14.199-4.301H102.4c-5.052,0-9.993,1.493-14.199,4.301l-76.8,51.2C4.275,111.445,0,119.441,0,128v307.2
			c0,14.14,11.46,25.6,25.6,25.6H384c14.14,0,25.6-11.46,25.6-25.6h-384V140.8h128v166.4H256V140.8h128v13.449
			C388.224,153.865,392.482,153.6,396.8,153.6z M153.6,115.2H44.8l57.6-38.4h51.2V115.2z M230.4,281.6h-51.2V140.8h51.2V281.6z
			 M230.4,115.2h-51.2V76.8h51.2V115.2z M256,115.2V76.8h51.2l57.6,38.4H256z"/>
	</g>
</g>
<g>
	<g>
		<path d="M493.338,205.756l-89.6-25.225c-2.27-0.64-4.599-0.956-6.938-0.956c-2.338,0-4.668,0.316-6.938,0.956l-89.6,25.225
			c-11.034,3.106-18.662,13.175-18.662,24.644v51.2c0,95.019,103.748,125.756,108.169,127.01c2.295,0.666,4.668,0.99,7.031,0.99
			c2.364,0,4.736-0.324,7.031-0.99C408.252,407.356,512,376.619,512,281.6v-51.2C512,218.931,504.371,208.862,493.338,205.756z
			 M307.2,281.6c0-25.6,0-51.2,0-51.2l89.6-25.225l44.305,12.476l-133.026,76.015C307.576,289.775,307.2,285.798,307.2,281.6z
			 M486.4,281.6c0,76.8-89.6,102.4-89.6,102.4s-25.455-7.39-49.229-25.822L486.4,278.844C486.4,279.765,486.4,280.678,486.4,281.6z
			 M486.4,249.361l-158.123,90.351c-5.043-6.135-9.498-13.013-13.013-20.668l160.41-91.665L486.4,230.4
			C486.4,230.4,486.4,238.208,486.4,249.361z"/>
	</g>
</g>
</svg>