<?xml version="1.0" encoding="iso-8859-1"?>
<!-- Uploaded to: SVG Repo, www.svgrepo.com, Generator: SVG Repo Mixer Tools -->
<svg fill="#000000" height="800px" width="800px" version="1.1" id="Layer_1" xmlns="http://www.w3.org/2000/svg" xmlns:xlink="http://www.w3.org/1999/xlink" 
	 viewBox="0 0 512 512" xml:space="preserve">
<g transform="translate(1 1)">
	<g>
		<g>
			<path d="M468.333,16.067H323.267V7.533c0-5.12-3.413-8.533-8.533-8.533h-0.853H195.267h-0.853c-5.12,0-8.533,3.413-8.533,8.533
				v8.533H41.667C17.773,16.067-1,34.84-1,58.733v409.6C-1,492.227,17.773,511,41.667,511h426.667
				C492.227,511,511,492.227,511,468.333v-409.6C511,34.84,492.227,16.067,468.333,16.067z M203.8,16.067h102.4V24.6v100.693
				L260.973,86.04c-1.707-0.853-4.267-1.707-5.973-1.707s-4.267,0.853-5.973,1.707L203.8,125.293V24.6V16.067z M493.933,468.333
				c0,14.507-11.093,25.6-25.6,25.6H41.667c-14.507,0-25.6-11.093-25.6-25.6v-409.6c0-14.507,11.093-25.6,25.6-25.6H185.88v95.573
				c0,6.827,3.413,11.947,9.387,14.507c5.973,2.56,11.947,1.707,17.067-2.56L255,103.96l42.667,36.693
				c3.413,1.707,6.827,3.413,10.24,3.413c1.707,0,4.267,0,5.12-0.853c5.973-2.56,9.387-8.533,9.387-14.507V33.133h145.92
				c14.507,0,25.6,11.093,25.6,25.6V468.333z"/>
			<path d="M468.333,459.8h-42.667c-5.12,0-8.533,3.413-8.533,8.533s3.413,8.533,8.533,8.533h42.667c5.12,0,8.533-3.413,8.533-8.533
				S473.453,459.8,468.333,459.8z"/>
			<path d="M468.333,425.667H408.6c-5.12,0-8.533,3.413-8.533,8.533s3.413,8.533,8.533,8.533h59.733c5.12,0,8.533-3.413,8.533-8.533
				S473.453,425.667,468.333,425.667z"/>
			<path d="M377.027,163.693l-38.516,38.516c-37.482-6.22-63.685-19.944-79.244-30.836c-2.56-1.707-6.827-1.707-9.387,0
				c-17.92,11.947-47.787,27.307-90.453,32.427c-4.267,0.853-7.68,4.267-7.68,8.533v77.653c0,28.132,6.969,55.483,19.607,79.38
				l-50.327,50.327c-3.413,3.413-3.413,8.533,0,11.947c1.707,1.707,3.413,2.56,5.973,2.56s4.267-0.853,5.973-2.56l47.331-47.331
				c9.083,13.466,20.13,25.465,32.883,35.384c11.947,9.387,25.6,17.067,38.4,22.187c1.707,0.853,2.56,0.853,3.413,0.853
				s1.707,0,2.56,0c13.653-5.12,26.453-12.8,38.4-22.187c38.4-29.867,61.44-78.507,61.44-129.707v-78.507
				c0-1.462-0.408-2.82-1.107-4.013l32.68-32.68c3.413-3.413,3.413-8.533,0-11.947C385.56,160.28,380.44,160.28,377.027,163.693z
				 M169.667,289.987V219.16c38.4-5.973,67.413-19.627,85.333-30.72c15.374,9.517,38.92,20.914,69.546,27.734L210.462,330.258
				c-4.188-12.646-6.662-25.784-6.662-39.418v-43.52c10.24-2.56,19.627-5.973,29.013-9.387c4.267-1.707,6.827-6.827,5.12-11.093
				s-6.827-6.827-11.093-5.12c-11.093,4.267-22.187,7.68-33.28,10.24c-4.267,0.853-6.827,4.267-6.827,8.533v50.347
				c0,17.713,3.488,36.115,10.438,52.709l-12.613,12.613C174.932,336.017,169.667,313.333,169.667,289.987z M340.333,289.987
				c0,46.08-20.48,89.6-54.613,116.053c-10.24,7.68-20.48,13.653-30.72,17.92c-10.24-4.267-21.333-10.24-30.72-17.92
				c-12.278-9.515-22.777-21.247-31.204-34.503L340.333,224.28V289.987z"/>
		</g>
	</g>
</g>
</svg>