<?xml version="1.0" encoding="iso-8859-1"?>
<!-- Uploaded to: SVG Repo, www.svgrepo.com, Generator: SVG Repo Mixer Tools -->
<svg fill="#000000" version="1.1" id="Capa_1" xmlns="http://www.w3.org/2000/svg" xmlns:xlink="http://www.w3.org/1999/xlink" 
	 viewBox="0 0 60 60" xml:space="preserve">
<g>
	<g>
		<g>
			<path d="M43.9,10.7v-0.1c-0.1-0.1-0.1-0.2-0.2-0.3l-10-10c-0.1-0.1-0.2-0.1-0.3-0.2h-0.1C33.2,0.1,33.1,0,33,0l0,0H1
				C0.4,0,0,0.4,0,1v58c0,0.6,0.4,1,1,1h42c0.6,0,1-0.4,1-1V11l0,0C44,10.9,44,10.8,43.9,10.7z M40.6,10H34V3.4L40.6,10z M23,58v-4
				h2c0.6,0,1-0.4,1-1v-4h1c0.6,0,1-0.4,1-1v-7.4c4.9-2.3,8-7.2,8-12.6c0-7.7-6.3-14-14-14S8,20.3,8,28c0,5.4,3.1,10.3,8,12.6V48
				c0,0.6,0.4,1,1,1h1v4c0,0.6,0.4,1,1,1h2v4H2V2h30v9c0,0.6,0.4,1,1,1h9v46H23z M18,43c0-1.5,0-3,0-3c0-0.4-0.2-0.7-0.6-0.9
				C12.9,37.2,10,32.8,10,28c0-6.6,5.4-12,12-12s12,5.4,12,12c0,4.8-2.9,9.2-7.4,11.1C26.2,39.2,26,39.6,26,40v7h-1h-6h-1
				c0,0,0-1.2,0-2h5v-2H18z M20,49h4v3h-4V49z"/>
			<path d="M23,26.4l2.7-2.7l-1.4-1.4L22,24.6l-2.3-2.3l-1.4,1.4l2.7,2.7V37h2C23,37,23,27.2,23,26.4z"/>
			<path d="M59,0h-6c-0.6,0-1,0.4-1,1v4h-3c-0.6,0-1,0.4-1,1v30h2V7h2v5v38c0,0.2,0.1,0.5,0.2,0.6l2.9,8.7c0.1,0.4,0.5,0.7,0.9,0.7
				s0.8-0.3,0.9-0.7l2.9-8.7c0.1-0.2,0.2-0.4,0.2-0.6V12V1C60,0.4,59.6,0,59,0z M54,13h4v36h-4V13z M54,2h4v9h-4V2z M56,55.8
				L54.4,51h3.2L56,55.8z"/>
			<rect x="6" y="5" width="5" height="2"/>
			<rect x="6" y="9" width="13" height="2"/>
		</g>
	</g>
	<g>
	</g>
	<g>
	</g>
	<g>
	</g>
	<g>
	</g>
	<g>
	</g>
	<g>
	</g>
	<g>
	</g>
	<g>
	</g>
	<g>
	</g>
	<g>
	</g>
	<g>
	</g>
	<g>
	</g>
	<g>
	</g>
	<g>
	</g>
	<g>
	</g>
</g>
</svg>